:version 1.10
:name ASF
:units
  mass 1
  length 1
  angle deg
:documentation
  ASF file generated by Kaydara
:root
  axis xyz
  order  tx ty tz rx ry rz
  position 0 0 0
  orientation 0 0 0
:bonedata
  begin
    id 1
    name SpineDummy
    direction 0.999998 -0.00179978 1.38929e-006
    length 3.60008
    axis 0 0 0 xyz
  end
  begin
    id 2
    name Spine
    direction 0.964365 0.262802 0.0305839
    length 8.13928
    axis 1.33928 -1.75354 15.2838 xyz
    dof rx ry rz
  end
  begin
    id 3
    name Spine1
    direction 0.811168 0.572065 0.12144
    length 7.14954
    axis 2.2224 -6.9761 35.2157 xyz
    dof rx ry rz
  end
  begin
    id 4
    name Neck
    direction 0 0 0
    length 0
    axis 2.2224 -6.9761 35.2157 xyz
    dof rx ry rz
  end
  begin
    id 5
    name HeadDummy
    direction 0.810939 0.572387 0.121455
    length 3.55534
    axis 2.2224 -6.9761 35.2157 xyz
  end
  begin
    id 6
    name Head
    direction 0.998226 -0.000232542 0.0595419
    length 7.35666
    axis -3.03688 -3.41352 -0.0133467 xyz
    dof rx ry rz
  end
  begin
    id 7
    name R_ClavicleDummy
    direction 0.531669 -0.194489 -0.824319
    length 2.49392
    axis 2.2224 -6.9761 35.2157 xyz
  end
  begin
    id 8
    name R_Clavicle
    direction -0.155119 0.0480802 -0.986725
    length 4.485
    axis -54.2764 80.6538 162.779 xyz
    dof rx ry rz
  end
  begin
    id 9
    name R_UpperArm
    direction -0.955567 0.200068 -0.216484
    length 10.1122
    axis -72.9943 12.5026 168.175 xyz
    dof rx ry rz
  end
  begin
    id 10
    name R_Forearm
    direction -0.61433 0.385743 0.688332
    length 9.39148
    axis -117.015 -43.4982 147.875 xyz
    dof rx ry rz
  end
  begin
    id 11
    name R_Hand
    direction -0.699429 0.0170333 0.714499
    length 3.66324
    axis -45.0303 -36.7097 175.478 xyz
    dof rx ry rz
  end
  begin
    id 12
    name L_ClavicleDummy
    direction 0.40287 -0.36502 0.839319
    length 2.49392
    axis 2.2224 -6.9761 35.2157 xyz
  end
  begin
    id 13
    name L_Clavicle
    direction -0.231271 -0.0726419 0.970174
    length 4.485
    axis 18.4357 -75.9711 -162.563 xyz
    dof rx ry rz
  end
  begin
    id 14
    name L_UpperArm
    direction -0.917494 0.144359 0.370629
    length 10.1122
    axis 56.0417 -21.7544 171.058 xyz
    dof rx ry rz
  end
  begin
    id 15
    name L_Forearm
    direction -0.496786 0.615074 -0.612281
    length 9.39148
    axis 89.8094 37.7546 128.927 xyz
    dof rx ry rz
  end
  begin
    id 16
    name L_Hand
    direction -0.409932 0.64962 -0.640274
    length 3.66324
    axis -0.424369 32.133 128.52 xyz
    dof rx ry rz
  end
  begin
    id 17
    name L_ThighDummy
    direction -1.84081e-006 1.87549e-006 1
    length 3.13049
    axis 0 0 0 xyz
  end
  begin
    id 18
    name L_Thigh
    direction -0.947739 0.307978 0.083308
    length 17.9961
    axis 173.219 -4.77873 161.998 xyz
    dof rx ry rz
  end
  begin
    id 19
    name L_Calf
    direction -0.728814 -0.684427 0.0197583
    length 13.3367
    axis 167.331 -1.13214 -136.799 xyz
    dof rx ry rz
  end
  begin
    id 20
    name L_Foot
    direction -0.9028 0.418719 0.0981191
    length 5.8674
    axis 163.436 11.5135 -155.37 xyz
    dof rx ry rz
  end
  begin
    id 21
    name L_Toe0
    direction -0.35341 0.886259 0.299411
    length 4.75286
    axis 169.316 -17.4222 111.74 xyz
    dof rx ry rz
  end
  begin
    id 22
    name R_ThighDummy
    direction 9.32778e-007 -8.82053e-007 -1
    length 3.13049
    axis 0 0 0 xyz
  end
  begin
    id 23
    name R_Thigh
    direction -0.925064 0.37528 -0.0585023
    length 17.9961
    axis -178.698 3.35385 157.919 xyz
    dof rx ry rz
  end
  begin
    id 24
    name R_Calf
    direction -0.68969 -0.718776 -0.0876886
    length 13.3367
    axis -160.504 5.03065 -133.817 xyz
    dof rx ry rz
  end
  begin
    id 25
    name R_Foot
    direction -0.857405 0.418858 -0.299022
    length 5.8674
    axis -161.328 4.38911 -154.413 xyz
    dof rx ry rz
  end
  begin
    id 26
    name R_Toe0
    direction -0.100745 0.952789 -0.286433
    length 4.75286
    axis 171.683 16.6445 96.0359 xyz
    dof rx ry rz
  end
:hierarchy
  begin
    root SpineDummy L_ThighDummy R_ThighDummy
    SpineDummy Spine
    Spine Spine1
    Spine1 Neck
    Neck HeadDummy R_ClavicleDummy L_ClavicleDummy
    HeadDummy Head
    R_ClavicleDummy R_Clavicle
    R_Clavicle R_UpperArm
    R_UpperArm R_Forearm
    R_Forearm R_Hand
    L_ClavicleDummy L_Clavicle
    L_Clavicle L_UpperArm
    L_UpperArm L_Forearm
    L_Forearm L_Hand
    L_ThighDummy L_Thigh
    L_Thigh L_Calf
    L_Calf L_Foot
    L_Foot L_Toe0
    R_ThighDummy R_Thigh
    R_Thigh R_Calf
    R_Calf R_Foot
    R_Foot R_Toe0
  end

:SAMPLES-PER-SECOND 30
:FULLY-SPECIFIED
:DEGREES
106
root  -10.8431 30.237 18.1177 -54.5678 1.31704 76.5315
Spine  0.915124 1.18247 -0.899568
Spine1  0.282901 -0.767101 -3.0768
Neck  3.97569e-016 0 -2.38542e-015
Head  -18.1319 -8.42614 6.77193
R_Clavicle  0.164212 -15.1938 -1.8566
R_UpperArm  1.90256 5.94526 4.49305
R_Forearm  22.0584 -22.556 19.7395
R_Hand  -1.09321 4.85107 -19.2583
L_Clavicle  -0.425797 15.3048 -1.10339
L_UpperArm  -4.17948 9.08391 18.3248
L_Forearm  4.5178 31.7819 36.7854
L_Hand  -0.111847 7.41187 -0.772574
L_Thigh  1.57239 -13.8113 -9.36452
L_Calf  -0.116257 -0.238669 1.97534
L_Foot  7.313 6.33468 21.1206
L_Toe0  0.342478 0.0413971 -6.28007
R_Thigh  -1.38109 0.627053 3.77993
R_Calf  3.60295 -5.97484 -18.9404
R_Foot  0.577705 0.679587 -3.6079
R_Toe0  -0.39585 -0.229121 -12.2116
107
root  -9.98294 29.1209 18.9107 -56.0739 1.14627 74.8767
Spine  1.97451 2.61096 -0.204015
Spine1  0.636199 -5.94759 0.960863
Neck  3.97569e-016 0 -2.38542e-015
Head  -20.6635 -6.47789 2.36283
R_Clavicle  0.0448699 -9.44587 -1.11635
R_UpperArm  1.58175 8.58518 -9.15129
R_Forearm  19.2406 -18.5906 16.2804
R_Hand  -1.26881 5.0602 -20.9722
L_Clavicle  -0.375417 14.2146 -1.54486
L_UpperArm  -3.54641 11.3205 17.4117
L_Forearm  5.7949 32.7972 36.9259
L_Hand  -0.300635 5.46103 -2.88608
L_Thigh  -0.885923 -14.8192 -6.5185
L_Calf  -2.85561 0.446305 -2.92089
L_Foot  8.4193 5.3684 26.4279
L_Toe0  0.505156 0.034446 -6.1361
R_Thigh  -5.09273 -1.58581 -2.42003
R_Calf  4.2247 -10.0192 -33.1886
R_Foot  -0.32969 -1.21544 -0.15209
R_Toe0  -1.86592 -0.280418 -17.7686
108
root  -9.07068 28.2493 19.6121 -56.873 1.3318 73.383
Spine  2.52087 3.51151 -0.0697943
Spine1  0.167075 -10.5341 4.08931
Neck  3.97569e-016 0 -2.38542e-015
Head  -24.6197 -4.81514 -1.05868
R_Clavicle  0.106134 -4.07165 0.20349
R_UpperArm  1.99253 11.6716 -20.4947
R_Forearm  17.1321 -15.0237 12.8572
R_Hand  -1.34017 5.00615 -21.665
L_Clavicle  -0.378844 14.3402 -1.70617
L_UpperArm  -0.428443 12.6058 19.6549
L_Forearm  6.56368 30.8848 36.3132
L_Hand  -0.405326 2.26082 -5.74843
L_Thigh  -2.06538 -15.6859 -3.16459
L_Calf  -4.16139 1.06362 -7.37041
L_Foot  8.64251 4.61953 28.4669
L_Toe0  0.505156 0.034446 -6.1361
R_Thigh  -7.20384 -6.16923 -10.2255
R_Calf  8.39302 -12.349 -42.7155
R_Foot  -0.788545 -1.90951 1.78654
R_Toe0  -1.78853 -0.272788 -17.3235
109
root  -8.1244 27.9229 20.1079 -58.2437 1.68921 72.7504
Spine  3.27284 4.42091 -0.205937
Spine1  0.0864321 -14.5134 4.51069
Neck  3.97569e-016 0 -2.38542e-015
Head  -29.4997 -3.39648 -1.34666
R_Clavicle  0.276209 -1.52264 1.35423
R_UpperArm  1.63824 13.9389 -26.7153
R_Forearm  14.7362 -12.0326 10.173
R_Hand  -1.22028 4.71132 -20.4986
L_Clavicle  -0.46509 16.2644 -1.74753
L_UpperArm  3.14972 13.1716 25.1384
L_Forearm  6.35488 27.8034 35.3278
L_Hand  -0.39153 -0.250713 -8.43171
L_Thigh  -3.57349 -15.0532 -0.0677165
L_Calf  -3.46211 1.32566 -9.30302
L_Foot  7.87479 3.88697 27.0731
L_Toe0  0.505156 0.034446 -6.1361
R_Thigh  -8.75728 -11.4448 -17.5066
R_Calf  12.2869 -13.0896 -46.1091
R_Foot  -0.905498 -2.45 1.45029
R_Toe0  -1.78853 -0.272788 -17.3235
110
root  -7.163 28.259 20.334 -60.8088 1.91405 73.35
Spine  4.5232 6.20255 -0.591245
Spine1  1.02111 -18.3398 2.08153
Neck  3.97569e-016 0 -2.38542e-015
Head  -33.4741 -1.95734 1.90922
R_Clavicle  0.426165 -1.41406 2.16891
R_UpperArm  1.48563 13.46 -27.9925
R_Forearm  11.4727 -9.64557 8.08952
R_Hand  -0.979911 4.38684 -18.025
L_Clavicle  -0.53909 18.0498 -1.42269
L_UpperArm  4.10386 14.242 31.5404
L_Forearm  5.25408 26.1477 34.3768
L_Hand  -0.393793 -0.930222 -9.68617
L_Thigh  -5.60839 -12.4627 1.43327
L_Calf  -2.24836 1.01453 -7.07229
L_Foot  6.68656 3.26027 23.8576
L_Toe0  0.505156 0.034446 -6.1361
R_Thigh  -10.2752 -15.4886 -22.6812
R_Calf  13.6879 -12.4336 -43.1317
R_Foot  -1.40406 -5.00012 -0.197261
R_Toe0  -1.78853 -0.272788 -17.3235
111
root  -6.09291 29.231 20.3493 -63.6769 2.14244 75.1222
Spine  5.69196 8.6002 -1.78964
Spine1  2.46902 -21.2644 -1.40422
Neck  3.97569e-016 0 -2.38542e-015
Head  -35.1001 -0.648401 6.87643
R_Clavicle  0.494029 -2.23394 2.55547
R_UpperArm  1.91459 10.257 -25.8348
R_Forearm  9.28662 -7.35034 6.12385
R_Hand  -0.751095 4.21632 -15.6056
L_Clavicle  -0.527095 18.0053 -0.86193
L_UpperArm  3.19885 16.7907 36.6162
L_Forearm  2.87583 25.8172 33.958
L_Hand  -0.407158 -0.651556 -9.4028
L_Thigh  -6.70612 -8.82935 1.00817
L_Calf  -1.59968 0.0527476 -0.126798
L_Foot  5.43886 3.56308 18.6322
L_Toe0  0.532142 0.0341881 -6.15862
R_Thigh  -11.0956 -17.5165 -25.3419
R_Calf  12.1773 -10.3912 -34.6822
R_Foot  -1.63837 -7.22882 -2.45922
R_Toe0  -1.78853 -0.272788 -17.3235
112
root  -4.78821 30.6414 20.2569 -65.7719 2.59967 77.4509
Spine  6.06249 9.92051 -4.05603
Spine1  3.54141 -21.6087 -4.20727
Neck  3.97569e-016 0 -2.38542e-015
Head  -34.5921 0.202838 11.3106
R_Clavicle  0.451696 -3.2279 2.32539
R_UpperArm  2.09758 5.89421 -21.5008
R_Forearm  9.45989 -5.08025 4.20654
R_Hand  -0.573094 4.16333 -13.7384
L_Clavicle  -0.490444 17.073 -0.659681
L_UpperArm  1.45428 20.061 40.1801
L_Forearm  0.0232485 25.7686 33.8696
L_Hand  -0.389395 -0.418841 -8.58475
L_Thigh  -6.69135 -4.88177 -0.373171
L_Calf  -1.11797 -1.38848 10.4029
L_Foot  3.25717 4.18095 9.04821
L_Toe0  0.244289 0.0369391 -5.91836
R_Thigh  -10.5739 -17.7859 -26.541
R_Calf  9.01042 -7.16809 -22.9925
R_Foot  -1.17428 -6.94683 -4.66881
R_Toe0  -1.78853 -0.272788 -17.3235
